<svg width="150" height="150" viewBox="0 0 150 150" fill="none" xmlns="http://www.w3.org/2000/svg">
<path d="M133.314 118.969C132.529 122.488 130.583 125.64 127.789 127.919C124.737 131.015 121.099 133.473 117.089 135.151C113.078 136.829 108.774 137.693 104.426 137.694H102.395C93.2703 137.198 84.3358 134.889 76.114 130.9H76.0515C74.1452 130.013 72.1765 129.125 70.2702 128.044C60.6728 122.663 51.8698 115.974 44.114 108.169C34.0487 98.7147 25.789 87.5069 19.739 75.0938C16.5236 68.2909 14.3775 61.0325 13.3765 53.575C11.9043 45.7688 12.7899 37.701 15.9202 30.4C17.8964 27.1061 20.3101 24.0954 23.0952 21.45C24.3484 20.0328 25.8806 18.8895 27.5959 18.0915C29.3112 17.2935 31.1727 16.8581 33.064 16.8125C35.1208 17.0398 37.1121 17.6734 38.9221 18.6766C40.7321 19.6798 42.3248 21.0325 43.6077 22.6562C46.464 25.7625 49.9515 29 52.814 31.9875L56.7515 35.8625C59.064 37.9125 60.4952 40.775 60.7515 43.8625C60.7515 46.6938 59.7077 49.425 57.8265 51.5438C56.6081 53.0256 55.3148 54.4441 53.9515 55.7938L52.6827 57.125C51.9452 57.8125 51.3827 58.6625 51.0327 59.6063C50.7202 60.5354 50.5952 61.4875 50.6577 62.4625C51.664 65.1563 53.2452 67.6063 55.2827 69.6375C58.464 73.95 61.639 77.7 64.8765 81.7625C70.7324 88.5608 77.6821 94.3339 85.439 98.8438C86.2327 99.425 87.1452 99.8125 88.114 99.9813C88.9515 100.044 89.8015 99.9188 90.589 99.6063C92.8077 98.3 94.7765 96.625 96.4265 94.65C98.6454 91.9327 101.831 90.1809 105.314 89.7625C108.666 89.8085 111.863 91.1792 114.208 93.575C115.476 94.65 116.87 96.1125 118.208 97.5125L120.108 99.475L122.076 101.381L125.445 104.806C127.454 106.59 129.337 108.496 131.095 110.525C132.858 112.963 133.651 115.981 133.314 118.969ZM110.526 75.475C109.267 75.462 108.064 74.956 107.173 74.0657C106.283 73.1754 105.777 71.9716 105.764 70.7125C105.771 67.1174 105.067 63.5563 103.695 60.2335C102.322 56.9108 100.307 53.8918 97.7644 51.3496C95.2222 48.8074 92.2032 46.7922 88.8804 45.4194C85.5577 44.0467 81.9966 43.3434 78.4015 43.35C77.1384 43.35 75.927 42.8482 75.0339 41.9551C74.1407 41.062 73.639 39.8506 73.639 38.5875C73.639 37.3244 74.1407 36.113 75.0339 35.2199C75.927 34.3268 77.1384 33.825 78.4015 33.825C83.2477 33.8176 88.0477 34.7667 92.5265 36.6178C97.0052 38.469 101.075 41.1858 104.501 44.6126C107.928 48.0394 110.645 52.1088 112.496 56.5875C114.347 61.0662 115.296 65.8663 115.289 70.7125C115.291 71.3384 115.169 71.9584 114.93 72.537C114.691 73.1155 114.34 73.6412 113.898 74.0838C113.455 74.5263 112.929 74.8771 112.351 75.1158C111.772 75.3546 111.152 75.4767 110.526 75.475Z" fill="#D9D9D9"/>
<path d="M132.555 73.2496C131.297 73.2366 130.094 72.7315 129.204 71.8425C128.314 70.9536 127.807 69.7513 127.793 68.4934C127.803 62.3677 126.605 56.3003 124.267 50.6382C121.929 44.9761 118.498 39.8306 114.17 35.4959C109.842 31.1612 104.701 27.7226 99.0427 25.3767C93.3841 23.0308 87.3184 21.8238 81.1928 21.8246C80.5533 21.8478 79.9157 21.7418 79.318 21.5131C78.7203 21.2844 78.1749 20.9375 77.7143 20.4933C77.2536 20.049 76.8873 19.5165 76.637 18.9275C76.3868 18.3386 76.2578 17.7052 76.2578 17.0652C76.2578 16.4253 76.3868 15.7919 76.637 15.2029C76.8873 14.6139 77.2536 14.0814 77.7143 13.6372C78.1749 13.193 78.7203 12.8461 79.318 12.6174C79.9157 12.3886 80.5533 12.2827 81.1928 12.3059C88.5685 12.3059 95.8719 13.7596 102.685 16.5841C109.499 19.4085 115.689 23.5483 120.901 28.7666C126.114 33.9849 130.247 40.1794 133.063 46.9961C135.88 53.8127 137.326 61.1177 137.318 68.4934C137.319 69.1192 137.197 69.7393 136.959 70.3178C136.72 70.8964 136.369 71.4221 135.927 71.8646C135.484 72.3072 134.958 72.6579 134.38 72.8967C133.801 73.1354 133.181 73.2513 132.555 73.2496Z" fill="#D9D9D9"/>
</svg>
