<svg width="150" height="150" viewBox="0 0 150 150" fill="none" xmlns="http://www.w3.org/2000/svg">
<path d="M75 0C116.422 0 150 33.5775 150 75C150 116.422 116.422 150 75 150C62.2348 150.018 49.6779 146.765 38.5275 140.55L36.24 139.215L13.5001 145.905C12.2626 146.27 10.9525 146.312 9.69392 146.029C8.43538 145.745 7.27011 145.145 6.30859 144.285C5.34706 143.425 4.62113 142.333 4.19963 141.114C3.77813 139.894 3.67501 138.588 3.90006 137.317L4.09506 136.5L10.7851 113.76C3.71296 102.069 -0.0173433 88.6632 6.06213e-05 75C6.06213e-05 33.5775 33.5775 0 75 0ZM75 15C64.2572 14.998 53.711 17.8804 44.4625 23.3461C35.2141 28.8118 27.6027 36.6603 22.4233 46.072C17.2438 55.4838 14.6863 66.1135 15.0177 76.8512C15.3492 87.5888 18.5575 98.0406 24.3075 107.115C25.7925 109.455 26.43 112.335 25.9275 115.192L25.635 116.415L22.3276 127.672L33.585 124.365C36.8325 123.405 40.2075 123.99 42.885 125.692C50.7475 130.671 59.6602 133.752 68.9186 134.693C78.177 135.633 87.5273 134.407 96.2303 131.112C104.933 127.816 112.75 122.542 119.064 115.705C125.377 108.868 130.014 100.656 132.607 91.7182C135.2 82.7807 135.678 73.3626 134.004 64.2083C132.331 55.054 128.55 46.4145 122.962 38.9728C117.375 31.5311 110.132 25.4912 101.808 21.3306C93.484 17.17 84.3061 15.0027 75 15ZM53.265 38.88C54.0962 38.5241 55.0052 38.3888 55.9039 38.4874C56.8027 38.5859 57.6608 38.9149 58.395 39.4425C62.175 42.2025 65.175 45.9075 67.755 49.5225L70.2075 53.0775L71.355 54.765C72.0196 55.7322 72.346 56.8918 72.2836 58.0636C72.2212 59.2354 71.7735 60.3538 71.01 61.245L70.4475 61.815L63.5175 66.96C63.1878 67.2045 62.956 67.5585 62.8639 67.9586C62.7718 68.3586 62.8254 68.7784 63.015 69.1425C64.59 71.9925 67.3725 76.245 70.5675 79.44C73.77 82.635 78.2175 85.605 81.2625 87.3525C81.9225 87.7275 82.7175 87.6075 83.2575 87.12L83.5425 86.7825L88.05 79.92C88.8763 78.816 90.0985 78.0757 91.4596 77.8547C92.8207 77.6336 94.2144 77.9492 95.3475 78.735L99.42 81.5775C103.47 84.465 107.363 87.57 110.445 91.5075C111.015 92.2474 111.378 93.1262 111.495 94.053C111.613 94.9798 111.48 95.9212 111.113 96.78C108.143 103.71 100.62 109.612 92.805 109.327L91.6125 109.252L90.18 109.117L89.37 109.012L87.585 108.712C80.655 107.407 69.5475 103.477 58.035 91.9725C46.53 80.46 42.6 69.3525 41.295 62.4225L40.995 60.6375L40.8075 59.0775L40.71 57.765L40.68 57.2025C40.395 49.3725 46.3275 41.85 53.265 38.88Z" fill="#D9D9D9"/>
</svg>
